<?xml version="1.0" encoding="UTF-8" ?>
<!DOCTYPE svg PUBLIC "-//W3C//DTD SVG 1.1//EN" "http://www.w3.org/Graphics/SVG/1.1/DTD/svg11.dtd">
<svg width="531pt" height="295pt" viewBox="0 0 531 295" version="1.1" xmlns="http://www.w3.org/2000/svg">
<g id="#ff3a2dff">
<path fill="#ff3a2d" opacity="1.00" d=" M 303.35 1.24 C 309.87 0.10 315.00 11.16 308.90 14.86 C 297.67 24.15 285.39 32.04 273.69 40.69 C 251.79 56.84 229.88 73.00 207.65 88.70 C 205.00 90.25 201.29 93.20 198.36 90.71 C 195.73 87.25 196.69 81.74 200.27 79.27 C 211.22 71.51 222.15 63.70 233.41 56.40 C 253.71 41.57 273.15 25.59 292.26 9.26 C 295.81 6.42 298.77 2.47 303.35 1.24 Z" />
<path fill="#ff3a2d" opacity="1.00" d=" M 472.24 60.45 C 487.61 60.72 503.09 58.76 518.39 60.61 C 524.47 61.24 527.98 67.02 528.23 72.69 C 529.44 88.44 528.00 104.25 528.22 120.02 C 514.42 128.91 499.34 141.36 498.30 159.00 C 498.58 177.15 514.10 190.01 528.23 198.91 C 528.49 230.59 528.54 262.27 528.97 293.95 C 494.84 275.43 455.13 271.74 416.98 270.87 C 333.88 269.90 251.14 282.78 168.00 279.01 C 109.93 276.39 49.23 265.24 1.62 229.76 C 13.54 232.22 25.51 234.91 36.96 239.06 C 72.06 257.48 111.76 265.09 151.05 267.20 C 230.03 271.36 308.22 256.33 386.90 252.73 C 429.01 251.24 473.79 251.95 511.66 272.80 C 511.34 250.99 510.95 229.17 510.57 207.36 C 499.51 196.76 488.95 184.57 484.49 169.61 C 481.57 160.13 484.12 150.01 488.41 141.38 C 493.92 130.23 501.83 120.44 510.54 111.62 C 510.55 100.44 510.48 89.25 510.57 78.07 C 498.27 72.97 485.73 68.43 473.38 63.44 C 471.98 63.10 472.45 61.47 472.24 60.45 Z" />
<path fill="#ff3a2d" opacity="1.00" d=" M 422.03 93.00 C 434.26 91.00 446.64 90.14 458.99 89.21 C 460.92 88.78 462.55 89.79 463.85 91.11 C 463.19 94.33 462.55 97.57 461.77 100.77 C 449.85 105.00 437.03 105.59 424.61 107.52 C 421.01 107.96 415.88 108.89 413.83 105.01 C 412.33 99.73 416.60 93.63 422.03 93.00 Z" />
<path fill="#ff3a2d" opacity="1.00" d=" M 289.39 104.48 C 292.72 104.68 298.74 101.49 299.89 106.14 C 299.14 109.77 300.23 115.58 295.46 116.51 C 284.26 120.06 272.63 122.24 261.04 123.91 C 253.65 123.16 256.79 112.09 261.46 109.47 C 270.52 106.77 280.05 105.91 289.39 104.48 Z" />
<path fill="#ff3a2d" opacity="1.00" d=" M 202.50 111.37 C 202.55 106.91 208.53 105.72 209.81 110.21 C 216.77 128.21 215.08 148.23 212.11 166.91 C 211.65 170.60 211.84 175.75 216.08 177.15 C 220.55 177.79 225.61 176.01 227.81 171.85 C 232.85 162.22 233.29 151.15 234.62 140.62 C 237.73 135.80 246.09 139.98 246.69 145.12 C 247.93 155.35 238.81 165.18 242.70 175.31 C 250.27 181.94 265.51 180.98 269.96 170.99 C 275.10 161.09 270.09 149.04 275.57 139.37 C 282.46 137.15 289.05 144.00 287.69 150.81 C 285.63 163.14 281.65 175.37 274.87 185.95 C 269.45 194.58 259.28 200.64 248.96 199.83 C 240.16 198.31 234.65 190.01 233.57 181.59 C 231.05 185.94 229.69 190.88 227.04 195.13 C 218.75 203.20 202.38 197.82 202.22 185.55 C 197.08 192.92 189.73 199.88 179.98 198.90 C 169.92 199.50 164.31 189.27 160.62 181.43 C 154.95 188.30 146.61 192.07 138.72 195.77 C 107.02 209.36 70.76 212.29 37.34 203.72 C 24.80 200.20 11.23 194.23 5.09 181.96 C 0.00 169.89 -1.20 154.72 6.34 143.41 C 8.10 140.26 14.14 137.63 15.79 142.12 C 16.41 149.14 12.74 155.94 13.87 163.03 C 14.69 169.93 21.27 173.78 26.17 177.79 C 52.30 195.96 87.00 195.32 116.42 186.47 C 129.00 182.53 141.32 176.97 151.48 168.44 C 157.46 163.39 159.12 155.29 159.65 147.86 C 159.85 143.84 161.46 138.77 166.01 137.99 C 169.38 137.08 173.08 140.06 172.50 143.60 C 171.51 152.38 169.87 161.37 171.76 170.16 C 172.71 174.30 176.60 179.41 181.38 177.40 C 195.24 172.92 204.94 158.49 204.41 143.97 C 205.48 133.01 201.78 122.27 202.50 111.37 Z" />
<path fill="#ff3a2d" opacity="1.00" d=" M 75.00 120.94 C 86.34 118.71 97.81 115.44 109.41 115.76 C 109.75 119.43 108.86 123.03 107.72 126.49 C 92.56 130.78 77.52 135.81 61.94 138.32 C 56.74 139.18 57.51 132.29 59.47 129.45 C 61.64 122.91 69.44 122.70 75.00 120.94 Z" />
<path fill="#ff3a2d" opacity="1.00" d=" M 429.41 132.41 C 440.06 127.49 457.60 130.87 460.20 144.00 C 462.31 162.05 449.20 178.54 433.08 185.14 C 424.37 188.46 415.38 192.28 405.89 192.01 C 401.39 191.86 398.50 187.79 396.93 184.01 C 391.40 189.59 383.01 193.76 375.14 190.86 C 365.97 186.93 361.55 176.54 361.25 167.06 C 360.46 158.09 365.08 149.96 369.51 142.54 C 355.38 147.63 341.73 155.42 331.81 166.85 C 318.94 183.52 323.29 207.37 334.14 223.92 C 338.55 231.26 345.08 238.02 345.59 247.02 C 345.89 251.11 341.15 253.36 337.63 252.47 C 332.52 251.33 328.97 247.03 326.08 242.96 C 315.47 227.00 309.19 207.90 309.51 188.66 C 310.05 171.93 320.99 157.58 334.09 148.09 C 350.77 135.09 373.30 128.95 393.95 135.09 C 405.51 136.82 407.92 150.38 407.75 160.05 C 408.32 166.19 403.76 171.62 405.12 177.68 C 408.83 177.73 412.53 177.41 416.14 176.54 C 410.83 161.39 413.52 140.17 429.41 132.41 M 436.42 140.45 C 426.02 142.01 419.47 154.88 423.80 164.32 C 425.69 168.48 430.49 171.07 435.00 170.06 C 445.00 167.97 451.19 155.45 446.87 146.22 C 445.09 142.30 440.70 139.80 436.42 140.45 M 384.35 148.39 C 374.34 150.55 368.26 163.11 372.68 172.33 C 374.62 176.44 379.46 178.87 383.91 177.83 C 393.76 175.67 399.83 163.45 395.76 154.27 C 393.91 149.95 388.96 147.30 384.35 148.39 Z" />
<path fill="#ff3a2d" opacity="1.00" d=" M 200.37 235.33 C 212.31 232.61 224.38 229.94 236.64 229.26 C 237.84 232.98 236.48 236.77 235.41 240.33 C 220.03 244.60 204.81 249.94 188.98 252.19 C 184.17 252.25 185.45 245.96 187.18 243.24 C 188.92 237.49 195.46 236.81 200.37 235.33 Z" />
</g>
</svg>
